<svg width="769" height="225" viewBox="0 0 769 225" fill="none" xmlns="http://www.w3.org/2000/svg">
<path opacity="0.5" d="M768.473 153.006C767.537 160.187 748.234 143.637 701.29 155.96C674.302 163.044 634.127 196.77 597.917 202.53C568.147 207.266 524.079 165.662 492.575 131.541C472.392 105.345 465.693 75.9549 441.506 75.916C325.891 75.7302 344.154 128.62 280.414 120.546C202.116 110.629 183.817 41.4691 133.723 25.4646C83.5723 9.44204 13.6133 77.8565 17.5513 71.0651C33.3034 65.0904 74.8883 16.7682 127.52 13.7645C180.093 10.7642 199.919 121.624 278.217 131.541C338.591 139.189 330.724 75.0626 441.506 65.2038C473.423 62.3633 475.952 119.348 497.005 145.772C518.642 172.93 561.032 193.604 589.056 195.739C624.498 201.56 665.847 178.075 694.398 165.662C731.317 149.611 768.473 148.198 768.473 153.006Z" fill="#FFB800"/>
<path opacity="0.5" d="M754.745 172.764C754.428 175.19 742.56 158.275 697.151 158.696C671.046 158.938 619.122 191.209 583.777 190.228C554.72 189.421 518.575 130.502 484.498 116.006C462.299 105.207 457.244 85.0284 433.304 83.0181C318.875 73.4093 337.087 120.202 273.322 112.125C194.994 102.204 170.565 42.7664 119.631 33.0512C68.64 23.325 4.29357 60.9267 7.61342 58.884C22.694 58.1013 64.8494 27.8136 116.679 31.1112C168.451 34.4051 194.994 104.144 273.322 114.065C333.718 121.715 324.512 75.3698 433.304 81.0777C464.649 82.7222 465.356 113.559 488.435 124.51C512.156 135.764 555.863 184.26 583.777 187.317C619.346 192.273 668.476 163.577 695.674 161.606C730.845 159.058 754.336 171.087 754.745 172.764Z" fill="#FFA800"/>
</svg>
